<svg width="118" height="25" viewBox="0 0 118 25" fill="none" xmlns="http://www.w3.org/2000/svg">
<path d="M50.6867 24.9973C50.5113 24.998 50.3401 24.9395 50.1976 24.8299L43.4987 19.6275L36.7998 24.8299C36.6567 24.9411 36.4842 25.0007 36.3074 25C36.1306 24.9993 35.9586 24.9384 35.8163 24.8261C35.6739 24.7138 35.5686 24.5559 35.5155 24.3752C35.4624 24.1946 35.4644 24.0005 35.521 23.8211L38.1337 15.5316L31.3624 10.5574C31.2157 10.4498 31.105 10.2947 31.0465 10.1149C30.9879 9.93509 30.9846 9.73993 31.037 9.55794C31.0893 9.37595 31.1947 9.21666 31.3376 9.10335C31.4804 8.99005 31.6534 8.92866 31.8312 8.92816H40.1849L42.7059 0.617394C42.7602 0.437967 42.8662 0.281578 43.0086 0.170661C43.1511 0.0597441 43.3226 0 43.4987 0C43.6748 0 43.8463 0.0597441 43.9888 0.170661C44.1312 0.281578 44.2372 0.437967 44.2915 0.617394L46.8125 8.93095H55.1662C55.3442 8.93086 55.5176 8.99182 55.6609 9.10491C55.8042 9.21799 55.9099 9.37727 55.9626 9.5594C56.0153 9.74153 56.0122 9.93695 55.9537 10.117C55.8952 10.2971 55.7844 10.4524 55.6376 10.5602L48.8637 15.5316L51.4748 23.8189C51.5171 23.9531 51.529 24.0961 51.5095 24.2362C51.49 24.3763 51.4397 24.5094 51.3627 24.6245C51.2857 24.7396 51.1843 24.8335 51.0667 24.8983C50.9492 24.9631 50.8189 24.9971 50.6867 24.9973Z" fill="#F9EF00"/>
<path d="M112.687 24.9973C112.511 24.998 112.34 24.9395 112.198 24.8299L105.499 19.6275L98.7998 24.8299C98.6567 24.9411 98.4842 25.0007 98.3074 25C98.1306 24.9993 97.9586 24.9384 97.8163 24.8261C97.6739 24.7138 97.5686 24.5559 97.5155 24.3752C97.4624 24.1946 97.4644 24.0005 97.521 23.8211L100.134 15.5316L93.3624 10.5574C93.2157 10.4498 93.105 10.2947 93.0465 10.1149C92.9879 9.93509 92.9846 9.73993 93.037 9.55794C93.0893 9.37595 93.1947 9.21666 93.3376 9.10335C93.4804 8.99005 93.6534 8.92866 93.8312 8.92816H102.185L104.706 0.617394C104.76 0.437967 104.866 0.281578 105.009 0.170661C105.151 0.0597441 105.323 0 105.499 0C105.675 0 105.846 0.0597441 105.989 0.170661C106.131 0.281578 106.237 0.437967 106.291 0.617394L108.812 8.93095H117.166C117.344 8.93086 117.518 8.99182 117.661 9.10491C117.804 9.21799 117.91 9.37727 117.963 9.5594C118.015 9.74153 118.012 9.93695 117.954 10.117C117.895 10.2971 117.784 10.4524 117.638 10.5602L110.864 15.5316L113.475 23.8189C113.517 23.9531 113.529 24.0961 113.51 24.2362C113.49 24.3763 113.44 24.5094 113.363 24.6245C113.286 24.7396 113.184 24.8335 113.067 24.8983C112.949 24.9631 112.819 24.9971 112.687 24.9973Z" fill="#F9EF00"/>
<path d="M19.6867 24.9973C19.5113 24.998 19.3401 24.9395 19.1976 24.8299L12.4987 19.6275L5.79979 24.8299C5.65667 24.9411 5.48425 25.0007 5.30745 25C5.13065 24.9993 4.95864 24.9384 4.81628 24.8261C4.67392 24.7138 4.56859 24.5559 4.51552 24.3752C4.46245 24.1946 4.46438 24.0005 4.52105 23.8211L7.13373 15.5316L0.362419 10.5574C0.215748 10.4498 0.105049 10.2947 0.0464965 10.1149C-0.0120561 9.93509 -0.0153937 9.73993 0.0369715 9.55794C0.0893367 9.37595 0.19466 9.21666 0.337553 9.10335C0.480447 8.99005 0.653421 8.92866 0.831203 8.92816H9.18492L11.7059 0.617394C11.7602 0.437967 11.8662 0.281578 12.0086 0.170661C12.1511 0.0597441 12.3226 0 12.4987 0C12.6748 0 12.8463 0.0597441 12.9888 0.170661C13.1312 0.281578 13.2372 0.437967 13.2915 0.617394L15.8125 8.93095H24.1662C24.3442 8.93086 24.5176 8.99182 24.6609 9.10491C24.8042 9.21799 24.9099 9.37727 24.9626 9.5594C25.0153 9.74153 25.0122 9.93695 24.9537 10.117C24.8952 10.2971 24.7844 10.4524 24.6376 10.5602L17.8637 15.5316L20.4748 23.8189C20.5171 23.9531 20.529 24.0961 20.5095 24.2362C20.49 24.3763 20.4397 24.5094 20.3627 24.6245C20.2857 24.7396 20.1843 24.8335 20.0667 24.8983C19.9492 24.9631 19.8189 24.9971 19.6867 24.9973Z" fill="#F9EF00"/>
<path d="M81.6867 24.9973C81.5113 24.998 81.3401 24.9395 81.1976 24.8299L74.4987 19.6275L67.7998 24.8299C67.6567 24.9411 67.4842 25.0007 67.3074 25C67.1306 24.9993 66.9586 24.9384 66.8163 24.8261C66.6739 24.7138 66.5686 24.5559 66.5155 24.3752C66.4624 24.1946 66.4644 24.0005 66.521 23.8211L69.1337 15.5316L62.3624 10.5574C62.2157 10.4498 62.105 10.2947 62.0465 10.1149C61.9879 9.93509 61.9846 9.73993 62.037 9.55794C62.0893 9.37595 62.1947 9.21666 62.3376 9.10335C62.4804 8.99005 62.6534 8.92866 62.8312 8.92816H71.1849L73.7059 0.617394C73.7602 0.437967 73.8662 0.281578 74.0086 0.170661C74.1511 0.0597441 74.3226 0 74.4987 0C74.6748 0 74.8463 0.0597441 74.9888 0.170661C75.1312 0.281578 75.2372 0.437967 75.2915 0.617394L77.8125 8.93095H86.1662C86.3442 8.93086 86.5176 8.99182 86.6609 9.10491C86.8042 9.21799 86.9099 9.37727 86.9626 9.5594C87.0153 9.74153 87.0122 9.93695 86.9537 10.117C86.8952 10.2971 86.7844 10.4524 86.6376 10.5602L79.8637 15.5316L82.4748 23.8189C82.5171 23.9531 82.529 24.0961 82.5095 24.2362C82.49 24.3763 82.4397 24.5094 82.3627 24.6245C82.2857 24.7396 82.1843 24.8335 82.0667 24.8983C81.9492 24.9631 81.8189 24.9971 81.6867 24.9973Z" fill="#F9EF00"/>
</svg>
