<svg id="Capa_1" data-name="Capa 1" xmlns="http://www.w3.org/2000/svg" viewBox="0 0 800 800"><defs><style>.cls-1,.cls-2,.cls-3,.cls-4{fill:#1d1d1b;}.cls-2,.cls-3{stroke:#fff;stroke-width:4px;}.cls-2{stroke-miterlimit:10;}.cls-3{stroke-linecap:round;stroke-linejoin:round;}.cls-4{font-size:50px;font-family:Courgette-Regular, Courgette;}</style></defs><path class="cls-1" d="M332.81,338.75q-24-2.14-47-2.15a403.2,403.2,0,0,0-47.56,2.93q-31,86.72-66.6,124-13.1,13.88-27.15,18.75a19.54,19.54,0,0,1-7.13,1.37A15.49,15.49,0,0,1,131,482.4a13.39,13.39,0,0,1-4.59-3.22q-4.11-3.9-4.11-8.3t2.93-6.54Q156.26,442.07,191,348.52c-1,.26-2,.52-2.93.78s-2,.58-3.32,1-2.86,0-4.68-1.17a18.21,18.21,0,0,1-4.89-4.69q-5.07-7-1.36-10.35,6.82-6,26.17-11.52,26.17-81.06,27.15-114.85A32.91,32.91,0,0,0,212.3,212l-14.84,8.4q-6.06,3.33-16-5.27-9.76-8.2-8.59-15.63,1.36-11.13,31.25-18.36,10.54-2.53,16.6-2.54t12,.3a58.59,58.59,0,0,1,10.84,1.46q19.53,4.69,24,16.8a39.38,39.38,0,0,1,1.95,13.18A125.3,125.3,0,0,1,268,228.5q-1.58,10.44-4.49,23.73-6.25,28.91-16.61,61.71A744.85,744.85,0,0,1,335,308.87h8.4l10.74-32q18-54.1,22.07-81.84,2.54-16.41,16.41-16.41,9,0,14.84,4.5,10.93,8,10.55,17.28a103,103,0,0,1-3.32,20.8Q411.71,232.71,407,247t-10.74,30.67l-12.31,33,4.69.4c1.95.26,3.81.48,5.57.68a17.6,17.6,0,0,1,4.59,1.07c2.73,1.05,4.1,2.83,4.1,5.37a17,17,0,0,1-2.25,8,29.4,29.4,0,0,1-6.35,7.91,35,35,0,0,1-23,9.38q-23.84,62.69-27.74,76.85t-3.9,19.24q0,10.55,8.39,10.55,7.81,0,12.7-2.54l7-3.52a9.91,9.91,0,0,1,4.1-1c2.74,0,4.1,1.36,4.1,4.1q0,17.39-20.11,29.1a53.61,53.61,0,0,1-27.54,7.81q-19.92,0-27.74-17.77a28.07,28.07,0,0,1-2.73-11.52,88.67,88.67,0,0,1,3.91-25.69q3.9-13,8.59-26.46Z"/><path class="cls-2" d="M401.86,190.28q-22.78,12.89-14.53,81.82l12.18,87.36q11.72,83.37-.82,118.73,28.33-32.42,73.46-63.33,6.41-4.51,12.87-8.18A57.67,57.67,0,0,1,500.08,401a43,43,0,0,1,16.44-.89q16.92,2.55,26.35,19.2,5.19,9.18-1.61,13a17.89,17.89,0,0,1-8.37,2.26,87.19,87.19,0,0,0-10.09,1,116.16,116.16,0,0,0-12.28,2.69,125.69,125.69,0,0,0-30,12.25A217.77,217.77,0,0,0,454,468.09q-12.15,9.46-22.63,18.31l-19.53,16.65q-9,7.54-14.15,10.48t-9.29,2.23a30.45,30.45,0,0,1-8.51-2.93Q370.4,507.9,367.6,503q-4.52-8-2-12.31,10.2-16.09-1.36-79.35-10.69-58.57-13.92-78.74t-4.73-40.3a322.27,322.27,0,0,1-.65-39A153.19,153.19,0,0,1,350.45,218q9.92-35.24,37.11-50.62,19.21-10.87,41.63-1.79A63.28,63.28,0,0,1,460.9,193.9q15.3,27,11.59,67.28Q470.27,284.64,461,300q-4.62,7.32-10,10.35a23.08,23.08,0,0,1-10.63,3.21,33.19,33.19,0,0,1-10.08-1.15q-10-3.06-13.07-8.42t-1.27-8.6a156,156,0,0,0,17.54-50.31q4.59-28-5.55-45.9T401.86,190.28Z"/><path class="cls-3" d="M173.83,334.06S142,492,545,359c0,0-364.09,86.12-369-24.94"/><path id="path1962" class="cls-1" d="M520.65,380c-.06-.05-2.49-2.9-5.42-6.33s-5.37-6.28-5.42-6.31a48.88,48.88,0,0,0-4.33,2.51c-4,2.41-4.23,2.59-4.22,2.8s.16,1,.36,2l.25,1.28a.88.88,0,0,1-.5.9l-1.11.67h0a2.49,2.49,0,0,1-2.84-.26l-.86-1-1.73-2a1.6,1.6,0,0,0-.75-.46l-3.25-1c-2.06-.66-3.74-1.21-3.74-1.23s.75-.49,1.68-1.05l1.06-.65a2.55,2.55,0,0,1,1.48-.31l2.44.18,2.43.18a2.54,2.54,0,0,0,1.48-.31l3.66-2.23c3.33-2,4.24-2.61,4.12-2.66s-4.84-1.57-10.57-3.41l-8.29-2.67c-1.06-.34-1.28-1.21-.43-1.72l.44-.27,1.43-.87a2.66,2.66,0,0,1,1.72-.29l11.88,1.92,11.88,1.92a2.66,2.66,0,0,0,1.72-.28l5.16-3.14c4.12-2.5,6-3.62,6.36-3.72A4.83,4.83,0,0,1,528,352a3.63,3.63,0,0,1,2.27.54c.58.38.77.67.77,1.18,0,.78.07.73-6.54,4.76l-5.24,3.2c-.44.28-.62.67-.46,1l2.32,5.45c1.41,3.33,2.88,6.79,3.25,7.68l.43,1a.83.83,0,0,1-.46,1l-1.42.87C521.29,379.74,520.71,380.06,520.65,380Z"/><text class="cls-4" transform="translate(162.39 568.7)">Hoteles</text><text class="cls-4" transform="translate(331 569.09)">Leiva</text><path class="cls-1" d="M156.39,569.36S242,592,442,573C442,573,172.78,593.71,156.39,569.36Z"/></svg>