<svg width="38" height="36" viewBox="0 0 38 36" fill="none" xmlns="http://www.w3.org/2000/svg">
<path d="M25.6703 2.61802C23.9153 0.929727 21.4641 0 18.7586 0C16.0387 0 13.5794 0.924102 11.8326 2.60195C10.0668 4.29828 9.20642 6.60371 9.40843 9.09316C9.80884 14.0046 14.0033 17.9999 18.7586 17.9999C23.514 17.9999 27.7012 14.0054 28.1079 9.09477C28.3126 6.62782 27.4469 4.32721 25.6703 2.61802ZM34.6309 35.9998H2.88638C2.47087 36.0046 2.05939 35.9268 1.68186 35.7721C1.30433 35.6174 0.970258 35.3896 0.703945 35.1054C0.117754 34.481 -0.118526 33.6285 0.0564294 32.7662C0.817576 29.0039 3.193 25.8435 6.92659 23.6249C10.2435 21.6553 14.4452 20.5713 18.7586 20.5713C23.0721 20.5713 27.2737 21.6561 30.5907 23.6249C34.3242 25.8427 36.6997 29.0031 37.4608 32.7654C37.6358 33.6277 37.3995 34.4802 36.8133 35.1046C36.5471 35.389 36.213 35.6169 35.8355 35.7718C35.458 35.9266 35.0464 36.0045 34.6309 35.9998Z" fill="black"/>
</svg>
