<svg width="34" height="46" viewBox="0 0 34 46" fill="none" xmlns="http://www.w3.org/2000/svg">
<path d="M27.8032 30.3097C26.1872 30.309 24.6353 31.0949 23.4804 32.4987L12.2226 24.6375C12.4539 23.4519 12.4539 22.2147 12.2226 21.0291L23.4769 13.1678C24.5283 14.438 25.9094 15.202 27.3729 15.3229C28.8364 15.4438 30.2868 14.9138 31.4644 13.8278C32.6421 12.7418 33.47 11.1707 33.8001 9.39576C34.1301 7.6208 33.9407 5.75789 33.2658 4.14054C32.5908 2.52318 31.4744 1.25699 30.1164 0.568643C28.7584 -0.119706 27.2474 -0.185267 25.854 0.383698C24.4607 0.952662 23.2758 2.119 22.5116 3.67391C21.7475 5.22882 21.4538 7.07077 21.6833 8.87001L10.1635 16.9181C9.2586 15.9818 8.15764 15.3852 6.98957 15.198C5.82149 15.0109 4.63466 15.2411 3.56812 15.8616C2.50159 16.4821 1.59951 17.4672 0.967569 18.7015C0.335629 19.9359 0 21.3683 0 22.8311C0 24.2938 0.335629 25.7263 0.967569 26.9606C1.59951 28.195 2.50159 29.1801 3.56812 29.8006C4.63466 30.4211 5.82149 30.6513 6.98957 30.4641C8.15764 30.277 9.2586 29.6803 10.1635 28.744L21.6833 36.7966C21.4842 38.3509 21.6736 39.9438 22.2259 41.3604C22.7782 42.7769 23.667 43.9491 24.7724 44.7189C25.8777 45.4887 27.1466 45.8191 28.4078 45.6655C29.6691 45.512 30.8621 44.8818 31.826 43.8601C32.79 42.8383 33.4785 41.474 33.7988 39.9512C34.1191 38.4284 34.0558 36.8202 33.6174 35.3434C33.1789 33.8667 32.3865 32.5924 31.3469 31.6923C30.3073 30.7922 29.0704 30.3097 27.8032 30.3097Z" fill="#424242"/>
</svg>
