<svg width="41" height="37" viewBox="0 0 41 37" fill="none" xmlns="http://www.w3.org/2000/svg">
<path d="M39.7188 7.9131C38.2769 8.47847 36.7514 8.85095 35.1903 9.01876C36.8309 8.15185 38.0646 6.7746 38.6601 5.14532C37.1091 5.9638 35.415 6.53808 33.6504 6.84357C32.9074 6.14081 32.0137 5.58174 31.0238 5.20035C30.0339 4.81896 28.9684 4.62322 27.892 4.62501C23.5342 4.62501 20.0075 7.76134 20.0075 11.6276C20.0044 12.1653 20.0727 12.7015 20.2109 13.2246C17.086 13.0924 14.0261 12.373 11.2269 11.1125C8.42777 9.85193 5.95099 8.07798 3.95506 5.90411C3.25484 6.9694 2.88452 8.18485 2.88281 9.42345C2.88281 11.8516 4.28658 13.9979 6.40625 15.2553C5.15041 15.2284 3.9203 14.9284 2.82035 14.3809V14.4676C2.82035 17.8641 5.54301 20.6897 9.14652 21.3328C8.46889 21.4958 7.7706 21.5784 7.0693 21.5785C6.57167 21.5793 6.07518 21.5357 5.58705 21.4485C6.58883 24.2307 9.50447 26.2541 12.9582 26.3119C10.1518 28.2638 6.70624 29.3187 3.16309 29.311C2.53417 29.3101 1.90583 29.2763 1.28125 29.2098C4.88571 31.2869 9.07561 32.3855 13.3522 32.375C27.8752 32.375 35.8093 21.7014 35.8093 12.4442C35.8093 12.1406 35.8005 11.8371 35.7845 11.5408C37.3245 10.5523 38.6568 9.3238 39.7188 7.9131Z" fill="#161515"/>
</svg>
