<svg width="46" height="30" viewBox="0 0 46 30" fill="none" xmlns="http://www.w3.org/2000/svg">
<path d="M45.7044 6.62404C45.7044 3.10851 42.7302 0.280461 39.0552 0.280461C34.0772 0.0781226 29.0004 0 23.8121 0H22.1948C17.0191 0 11.9333 0.0781228 6.95533 0.281242C3.28924 0.281242 0.315039 3.12492 0.315039 6.64044C0.0904015 9.42084 -0.00484489 12.202 0.000546416 14.9832C-0.00843909 17.7644 0.0933967 20.5481 0.306054 23.3345C0.306054 26.8501 3.28026 29.7015 6.94634 29.7015C12.1759 29.9125 17.5403 30.0062 22.9945 29.9984C28.4577 30.014 33.807 29.9151 39.0426 29.7015C42.7177 29.7015 45.6919 26.8501 45.6919 23.3345C45.9075 20.5455 46.0063 17.7644 45.9974 14.9754C46.0177 12.1942 45.9201 9.41042 45.7044 6.62404ZM18.6005 22.647V7.2959L31.6295 14.9676L18.6005 22.647Z" fill="#ECE5E5"/>
</svg>
